<mxfile host="app.diagrams.net" modified="2024-06-20T21:52:33.718Z" agent="Mozilla/5.0 (Windows NT 10.0; Win64; x64) AppleWebKit/537.36 (KHTML, like Gecko) Chrome/126.0.0.0 Safari/537.36" etag="LPM1T7he0sXcIy7oQ4-c" version="24.5.5" type="github">
  <diagram name="Página-1" id="NGpVsT9gxT04GOo4dfE8">
    <mxGraphModel dx="2600" dy="1150" grid="0" gridSize="10" guides="1" tooltips="1" connect="1" arrows="1" fold="1" page="0" pageScale="1" pageWidth="827" pageHeight="1169" math="0" shadow="0">
      <root>
        <mxCell id="0" />
        <mxCell id="1" parent="0" />
        <mxCell id="kepkxFYFkRbRqQqUnSIt-4" value="" style="edgeStyle=orthogonalEdgeStyle;rounded=0;orthogonalLoop=1;jettySize=auto;html=1;strokeColor=#FF0080;flowAnimation=1;shadow=1;" parent="1" source="kepkxFYFkRbRqQqUnSIt-2" target="kepkxFYFkRbRqQqUnSIt-3" edge="1">
          <mxGeometry relative="1" as="geometry" />
        </mxCell>
        <mxCell id="kepkxFYFkRbRqQqUnSIt-29" style="edgeStyle=orthogonalEdgeStyle;rounded=0;orthogonalLoop=1;jettySize=auto;html=1;strokeColor=#FF0080;shadow=1;flowAnimation=1;" parent="1" source="kepkxFYFkRbRqQqUnSIt-2" target="kepkxFYFkRbRqQqUnSIt-30" edge="1">
          <mxGeometry relative="1" as="geometry">
            <mxPoint x="473" y="471" as="targetPoint" />
            <Array as="points">
              <mxPoint x="424" y="80" />
              <mxPoint x="842" y="80" />
              <mxPoint x="842" y="471" />
            </Array>
          </mxGeometry>
        </mxCell>
        <mxCell id="kepkxFYFkRbRqQqUnSIt-2" value="LOGIN&lt;div&gt;&lt;font color=&quot;#ff3399&quot;&gt;&lt;b&gt;TELA:01&lt;/b&gt;&lt;/font&gt;&amp;nbsp;&lt;/div&gt;" style="rounded=1;whiteSpace=wrap;html=1;glass=0;shadow=1;strokeColor=#FF0335;" parent="1" vertex="1">
          <mxGeometry x="364" y="85" width="120" height="60" as="geometry" />
        </mxCell>
        <mxCell id="kepkxFYFkRbRqQqUnSIt-6" value="" style="edgeStyle=orthogonalEdgeStyle;rounded=0;orthogonalLoop=1;jettySize=auto;html=1;strokeColor=#FF0080;flowAnimation=1;shadow=1;" parent="1" target="kepkxFYFkRbRqQqUnSIt-5" edge="1">
          <mxGeometry relative="1" as="geometry">
            <mxPoint x="363" y="212" as="sourcePoint" />
          </mxGeometry>
        </mxCell>
        <mxCell id="kepkxFYFkRbRqQqUnSIt-8" value="" style="edgeStyle=orthogonalEdgeStyle;rounded=0;orthogonalLoop=1;jettySize=auto;html=1;strokeColor=#FF0080;flowAnimation=1;shadow=1;" parent="1" source="kepkxFYFkRbRqQqUnSIt-3" target="kepkxFYFkRbRqQqUnSIt-7" edge="1">
          <mxGeometry relative="1" as="geometry" />
        </mxCell>
        <mxCell id="kepkxFYFkRbRqQqUnSIt-20" value="" style="edgeStyle=orthogonalEdgeStyle;rounded=0;orthogonalLoop=1;jettySize=auto;html=1;entryX=0.502;entryY=0.032;entryDx=0;entryDy=0;entryPerimeter=0;strokeColor=#FF0080;flowAnimation=1;shadow=1;" parent="1" source="kepkxFYFkRbRqQqUnSIt-3" target="kepkxFYFkRbRqQqUnSIt-19" edge="1">
          <mxGeometry relative="1" as="geometry" />
        </mxCell>
        <mxCell id="kepkxFYFkRbRqQqUnSIt-3" value="CADASTRAR USUÁRIO&lt;div&gt;&lt;font color=&quot;#ff3399&quot;&gt;&lt;b&gt;TELA:&lt;/b&gt;&lt;/font&gt;&amp;nbsp;&lt;/div&gt;" style="rounded=1;whiteSpace=wrap;html=1;glass=0;shadow=1;" parent="1" vertex="1">
          <mxGeometry x="364" y="182" width="120" height="60" as="geometry" />
        </mxCell>
        <mxCell id="kepkxFYFkRbRqQqUnSIt-12" value="" style="edgeStyle=orthogonalEdgeStyle;rounded=0;orthogonalLoop=1;jettySize=auto;html=1;entryX=0.497;entryY=0.035;entryDx=0;entryDy=0;entryPerimeter=0;strokeColor=#FF0080;flowAnimation=1;shadow=1;" parent="1" edge="1">
          <mxGeometry relative="1" as="geometry">
            <mxPoint x="222.1232362459547" y="232" as="sourcePoint" />
            <mxPoint x="220.50999999999996" y="320.36" as="targetPoint" />
            <Array as="points">
              <mxPoint x="222" y="242" />
              <mxPoint x="220" y="242" />
              <mxPoint x="220" y="312" />
              <mxPoint x="221" y="312" />
            </Array>
          </mxGeometry>
        </mxCell>
        <mxCell id="OtAILYENgcgl-qdQCmYY-2" style="edgeStyle=orthogonalEdgeStyle;rounded=0;orthogonalLoop=1;jettySize=auto;html=1;entryX=0.498;entryY=0.042;entryDx=0;entryDy=0;entryPerimeter=0;strokeColor=#FF0080;shadow=1;flowAnimation=1;" edge="1" parent="1" source="kepkxFYFkRbRqQqUnSIt-5" target="OtAILYENgcgl-qdQCmYY-4">
          <mxGeometry relative="1" as="geometry">
            <mxPoint x="66" y="326.3333333333333" as="targetPoint" />
            <Array as="points">
              <mxPoint x="44" y="212" />
            </Array>
          </mxGeometry>
        </mxCell>
        <mxCell id="kepkxFYFkRbRqQqUnSIt-5" value="REDEFINIR SENHA&lt;div&gt;&lt;font color=&quot;#ff3399&quot;&gt;&lt;b&gt;TELA:&lt;/b&gt;&lt;/font&gt;&amp;nbsp;&lt;/div&gt;" style="rounded=1;whiteSpace=wrap;html=1;glass=0;shadow=1;" parent="1" vertex="1">
          <mxGeometry x="121" y="182" width="120" height="60" as="geometry" />
        </mxCell>
        <mxCell id="kepkxFYFkRbRqQqUnSIt-7" value="USUÁRIO INVÁLIDO&lt;div&gt;&lt;div&gt;&lt;font color=&quot;#ff3399&quot;&gt;&lt;b&gt;TELA:&lt;/b&gt;&lt;/font&gt;&amp;nbsp;&lt;/div&gt;&lt;/div&gt;" style="rounded=1;whiteSpace=wrap;html=1;glass=0;shadow=1;" parent="1" vertex="1">
          <mxGeometry x="564" y="182" width="120" height="60" as="geometry" />
        </mxCell>
        <mxCell id="kepkxFYFkRbRqQqUnSIt-11" value="SENHA REDEFINIDA" style="rhombus;whiteSpace=wrap;html=1;rounded=1;glass=0;shadow=1;" parent="1" vertex="1">
          <mxGeometry x="123" y="271" width="110" height="110" as="geometry" />
        </mxCell>
        <mxCell id="kepkxFYFkRbRqQqUnSIt-13" style="edgeStyle=orthogonalEdgeStyle;rounded=0;orthogonalLoop=1;jettySize=auto;html=1;entryX=-0.003;entryY=0.406;entryDx=0;entryDy=0;entryPerimeter=0;strokeColor=#03FF2D;exitX=0.029;exitY=0.502;exitDx=0;exitDy=0;exitPerimeter=0;flowAnimation=1;shadow=1;" parent="1" source="kepkxFYFkRbRqQqUnSIt-11" target="kepkxFYFkRbRqQqUnSIt-2" edge="1">
          <mxGeometry relative="1" as="geometry">
            <mxPoint x="130" y="317" as="sourcePoint" />
            <Array as="points">
              <mxPoint x="109" y="326" />
              <mxPoint x="109" y="110" />
              <mxPoint x="361" y="110" />
            </Array>
            <mxPoint x="323.4399999999998" y="110.01999999999998" as="targetPoint" />
          </mxGeometry>
        </mxCell>
        <mxCell id="kepkxFYFkRbRqQqUnSIt-21" style="edgeStyle=orthogonalEdgeStyle;rounded=0;orthogonalLoop=1;jettySize=auto;html=1;strokeColor=#03FF2D;exitX=0.037;exitY=0.502;exitDx=0;exitDy=0;exitPerimeter=0;shadow=1;flowAnimation=1;" parent="1" source="kepkxFYFkRbRqQqUnSIt-19" target="kepkxFYFkRbRqQqUnSIt-2" edge="1">
          <mxGeometry relative="1" as="geometry">
            <Array as="points">
              <mxPoint x="342" y="326" />
              <mxPoint x="342" y="127" />
            </Array>
          </mxGeometry>
        </mxCell>
        <mxCell id="kepkxFYFkRbRqQqUnSIt-19" value="USUÁRIO&lt;div&gt;CRIADO&lt;/div&gt;" style="rhombus;whiteSpace=wrap;html=1;rounded=1;glass=0;shadow=1;" parent="1" vertex="1">
          <mxGeometry x="369" y="271" width="110" height="110" as="geometry" />
        </mxCell>
        <mxCell id="kepkxFYFkRbRqQqUnSIt-26" value="" style="edgeStyle=orthogonalEdgeStyle;rounded=0;orthogonalLoop=1;jettySize=auto;html=1;entryX=0.502;entryY=0.032;entryDx=0;entryDy=0;entryPerimeter=0;strokeColor=#FF0080;" parent="1" target="kepkxFYFkRbRqQqUnSIt-27" edge="1">
          <mxGeometry relative="1" as="geometry">
            <mxPoint x="624" y="242" as="sourcePoint" />
          </mxGeometry>
        </mxCell>
        <mxCell id="kepkxFYFkRbRqQqUnSIt-27" value="USUÁRIO&lt;div&gt;CRIADO&lt;/div&gt;" style="rhombus;whiteSpace=wrap;html=1;rounded=1;glass=0;shadow=1;" parent="1" vertex="1">
          <mxGeometry x="569" y="271" width="110" height="110" as="geometry" />
        </mxCell>
        <mxCell id="kepkxFYFkRbRqQqUnSIt-28" style="edgeStyle=orthogonalEdgeStyle;rounded=0;orthogonalLoop=1;jettySize=auto;html=1;entryX=0.994;entryY=0.451;entryDx=0;entryDy=0;entryPerimeter=0;strokeColor=#03FF2D;flowAnimation=1;shadow=1;" parent="1" source="kepkxFYFkRbRqQqUnSIt-27" target="kepkxFYFkRbRqQqUnSIt-2" edge="1">
          <mxGeometry relative="1" as="geometry">
            <Array as="points">
              <mxPoint x="692" y="326" />
              <mxPoint x="692" y="112" />
            </Array>
          </mxGeometry>
        </mxCell>
        <mxCell id="kepkxFYFkRbRqQqUnSIt-30" value="DASHBOARD&lt;div&gt;&lt;font color=&quot;#ff3399&quot;&gt;&lt;b&gt;TELA:&lt;/b&gt;&lt;/font&gt;&lt;/div&gt;" style="rounded=1;whiteSpace=wrap;html=1;glass=0;shadow=1;strokeColor=#FF0335;" parent="1" vertex="1">
          <mxGeometry x="364" y="443" width="120" height="60" as="geometry" />
        </mxCell>
        <mxCell id="OtAILYENgcgl-qdQCmYY-4" value="SENHA&amp;nbsp;&lt;div&gt;INVALIDA&lt;/div&gt;" style="rhombus;whiteSpace=wrap;html=1;rounded=1;glass=0;shadow=1;" vertex="1" parent="1">
          <mxGeometry x="-11" y="271" width="110" height="110" as="geometry" />
        </mxCell>
      </root>
    </mxGraphModel>
  </diagram>
</mxfile>
